<svg xmlns="http://www.w3.org/2000/svg" xmlns:xlink="http://www.w3.org/1999/xlink" width="500" zoomAndPan="magnify" viewBox="0 0 375 374.999991" height="500" preserveAspectRatio="xMidYMid meet" version="1.0"><defs><g/></defs><g fill="#ff00ff" fill-opacity="1"><g transform="translate(-0.971121, 218.891038)"><g><path d="M 35.53125 0 L 14.34375 0 C 12.613281 0 11.363281 -0.382812 10.59375 -1.15625 C 9.820312 -1.9375 9.4375 -3.191406 9.4375 -4.921875 L 9.4375 -93.484375 C 9.4375 -95.210938 9.820312 -96.460938 10.59375 -97.234375 C 11.363281 -98.015625 12.613281 -98.40625 14.34375 -98.40625 L 56.171875 -98.40625 C 68.566406 -98.40625 77.039062 -95.941406 81.59375 -91.015625 C 86.144531 -86.097656 88.421875 -79.675781 88.421875 -71.75 L 88.421875 -54.265625 C 88.421875 -46.335938 86.144531 -39.910156 81.59375 -34.984375 C 77.039062 -30.066406 68.566406 -27.609375 56.171875 -27.609375 L 40.453125 -27.609375 L 40.453125 -4.921875 C 40.453125 -3.191406 40.0625 -1.9375 39.28125 -1.15625 C 38.507812 -0.382812 37.257812 0 35.53125 0 Z M 40.1875 -72.84375 L 40.1875 -52.203125 L 52.484375 -52.203125 C 55.128906 -52.203125 56.859375 -52.882812 57.671875 -54.25 C 58.492188 -55.625 58.90625 -57.175781 58.90625 -58.90625 L 58.90625 -66.15625 C 58.90625 -67.882812 58.492188 -69.429688 57.671875 -70.796875 C 56.859375 -72.160156 55.128906 -72.84375 52.484375 -72.84375 Z M 40.1875 -72.84375 "/></g></g></g><g fill="#ff00ff" fill-opacity="1"><g transform="translate(92.23378, 218.891038)"><g><path d="M 92.796875 -25.828125 C 92.796875 -21.640625 92.179688 -17.835938 90.953125 -14.421875 C 89.722656 -11.003906 87.535156 -8.085938 84.390625 -5.671875 C 81.242188 -3.253906 76.914062 -1.363281 71.40625 0 C 65.894531 1.363281 58.90625 2.046875 50.4375 2.046875 C 41.957031 2.046875 34.9375 1.363281 29.375 0 C 23.820312 -1.363281 19.472656 -3.253906 16.328125 -5.671875 C 13.179688 -8.085938 10.992188 -11.003906 9.765625 -14.421875 C 8.535156 -17.835938 7.921875 -21.640625 7.921875 -25.828125 L 7.921875 -72.4375 C 7.921875 -76.625 8.535156 -80.425781 9.765625 -83.84375 C 10.992188 -87.257812 13.179688 -90.195312 16.328125 -92.65625 C 19.472656 -95.125 23.820312 -97.039062 29.375 -98.40625 C 34.9375 -99.769531 41.957031 -100.453125 50.4375 -100.453125 C 58.90625 -100.453125 65.894531 -99.769531 71.40625 -98.40625 C 76.914062 -97.039062 81.242188 -95.125 84.390625 -92.65625 C 87.535156 -90.195312 89.722656 -87.257812 90.953125 -83.84375 C 92.179688 -80.425781 92.796875 -76.625 92.796875 -72.4375 Z M 38.953125 -30.75 C 38.953125 -28.925781 39.632812 -27.398438 41 -26.171875 C 42.363281 -24.941406 45.507812 -24.328125 50.4375 -24.328125 C 55.351562 -24.328125 58.492188 -24.941406 59.859375 -26.171875 C 61.222656 -27.398438 61.90625 -28.925781 61.90625 -30.75 L 61.90625 -67.515625 C 61.90625 -69.242188 61.222656 -70.722656 59.859375 -71.953125 C 58.492188 -73.179688 55.351562 -73.796875 50.4375 -73.796875 C 45.507812 -73.796875 42.363281 -73.179688 41 -71.953125 C 39.632812 -70.722656 38.953125 -69.242188 38.953125 -67.515625 Z M 38.953125 -30.75 "/></g></g></g><g fill="#ff00ff" fill-opacity="1"><g transform="translate(192.955205, 218.891038)"><g><path d="M 55.078125 0 L 11.890625 0 C 10.160156 0 8.90625 -0.382812 8.125 -1.15625 C 7.351562 -1.9375 6.96875 -3.191406 6.96875 -4.921875 L 6.96875 -20.90625 C 6.96875 -22.632812 7.351562 -23.882812 8.125 -24.65625 C 8.90625 -25.4375 10.160156 -25.828125 11.890625 -25.828125 L 48.65625 -25.828125 C 49.84375 -25.828125 50.726562 -26.210938 51.3125 -26.984375 C 51.90625 -27.765625 52.203125 -28.703125 52.203125 -29.796875 C 52.203125 -31.347656 51.90625 -32.484375 51.3125 -33.203125 C 50.726562 -33.929688 49.84375 -34.34375 48.65625 -34.4375 L 28.15625 -37.3125 C 21.78125 -38.21875 16.65625 -40.3125 12.78125 -43.59375 C 8.90625 -46.875 6.96875 -52.34375 6.96875 -60 L 6.96875 -74.34375 C 6.96875 -82.09375 9.472656 -88.039062 14.484375 -92.1875 C 19.492188 -96.332031 26.421875 -98.40625 35.265625 -98.40625 L 73.53125 -98.40625 C 75.257812 -98.40625 76.507812 -98.015625 77.28125 -97.234375 C 78.0625 -96.460938 78.453125 -95.210938 78.453125 -93.484375 L 78.453125 -77.21875 C 78.453125 -75.488281 78.0625 -74.234375 77.28125 -73.453125 C 76.507812 -72.679688 75.257812 -72.296875 73.53125 -72.296875 L 41.6875 -72.296875 C 40.5 -72.296875 39.585938 -71.90625 38.953125 -71.125 C 38.316406 -70.351562 38 -69.378906 38 -68.203125 C 38 -67.015625 38.316406 -66.007812 38.953125 -65.1875 C 39.585938 -64.375 40.5 -63.921875 41.6875 -63.828125 L 62.046875 -61.09375 C 68.421875 -60.175781 73.566406 -58.078125 77.484375 -54.796875 C 81.410156 -51.523438 83.375 -46.0625 83.375 -38.40625 L 83.375 -24.046875 C 83.375 -16.304688 80.84375 -10.363281 75.78125 -6.21875 C 70.726562 -2.070312 63.828125 0 55.078125 0 Z M 55.078125 0 "/></g></g></g><g fill="#ff00ff" fill-opacity="1"><g transform="translate(281.786871, 218.891038)"><g><path d="M 55.90625 0 L 33.765625 0 C 32.023438 0 30.769531 -0.382812 30 -1.15625 C 29.226562 -1.9375 28.84375 -3.191406 28.84375 -4.921875 L 28.84375 -72.03125 L 8.75 -72.03125 C 7.019531 -72.03125 5.765625 -72.414062 4.984375 -73.1875 C 4.210938 -73.957031 3.828125 -75.210938 3.828125 -76.953125 L 3.828125 -93.484375 C 3.828125 -95.210938 4.210938 -96.460938 4.984375 -97.234375 C 5.765625 -98.015625 7.019531 -98.40625 8.75 -98.40625 L 80.90625 -98.40625 C 82.632812 -98.40625 83.882812 -98.015625 84.65625 -97.234375 C 85.4375 -96.460938 85.828125 -95.210938 85.828125 -93.484375 L 85.828125 -76.953125 C 85.828125 -75.210938 85.4375 -73.957031 84.65625 -73.1875 C 83.882812 -72.414062 82.632812 -72.03125 80.90625 -72.03125 L 60.8125 -72.03125 L 60.8125 -4.921875 C 60.8125 -3.191406 60.425781 -1.9375 59.65625 -1.15625 C 58.882812 -0.382812 57.632812 0 55.90625 0 Z M 55.90625 0 "/></g></g></g><g fill="#00ffff" fill-opacity="1"><g transform="translate(6.150817, 212.249729)"><g><path d="M 35.53125 0 L 14.34375 0 C 12.613281 0 11.363281 -0.382812 10.59375 -1.15625 C 9.820312 -1.9375 9.4375 -3.191406 9.4375 -4.921875 L 9.4375 -93.484375 C 9.4375 -95.210938 9.820312 -96.460938 10.59375 -97.234375 C 11.363281 -98.015625 12.613281 -98.40625 14.34375 -98.40625 L 56.171875 -98.40625 C 68.566406 -98.40625 77.039062 -95.941406 81.59375 -91.015625 C 86.144531 -86.097656 88.421875 -79.675781 88.421875 -71.75 L 88.421875 -54.265625 C 88.421875 -46.335938 86.144531 -39.910156 81.59375 -34.984375 C 77.039062 -30.066406 68.566406 -27.609375 56.171875 -27.609375 L 40.453125 -27.609375 L 40.453125 -4.921875 C 40.453125 -3.191406 40.0625 -1.9375 39.28125 -1.15625 C 38.507812 -0.382812 37.257812 0 35.53125 0 Z M 40.1875 -72.84375 L 40.1875 -52.203125 L 52.484375 -52.203125 C 55.128906 -52.203125 56.859375 -52.882812 57.671875 -54.25 C 58.492188 -55.625 58.90625 -57.175781 58.90625 -58.90625 L 58.90625 -66.15625 C 58.90625 -67.882812 58.492188 -69.429688 57.671875 -70.796875 C 56.859375 -72.160156 55.128906 -72.84375 52.484375 -72.84375 Z M 40.1875 -72.84375 "/></g></g></g><g fill="#00ffff" fill-opacity="1"><g transform="translate(99.355718, 212.249729)"><g><path d="M 92.796875 -25.828125 C 92.796875 -21.640625 92.179688 -17.835938 90.953125 -14.421875 C 89.722656 -11.003906 87.535156 -8.085938 84.390625 -5.671875 C 81.242188 -3.253906 76.914062 -1.363281 71.40625 0 C 65.894531 1.363281 58.90625 2.046875 50.4375 2.046875 C 41.957031 2.046875 34.9375 1.363281 29.375 0 C 23.820312 -1.363281 19.472656 -3.253906 16.328125 -5.671875 C 13.179688 -8.085938 10.992188 -11.003906 9.765625 -14.421875 C 8.535156 -17.835938 7.921875 -21.640625 7.921875 -25.828125 L 7.921875 -72.4375 C 7.921875 -76.625 8.535156 -80.425781 9.765625 -83.84375 C 10.992188 -87.257812 13.179688 -90.195312 16.328125 -92.65625 C 19.472656 -95.125 23.820312 -97.039062 29.375 -98.40625 C 34.9375 -99.769531 41.957031 -100.453125 50.4375 -100.453125 C 58.90625 -100.453125 65.894531 -99.769531 71.40625 -98.40625 C 76.914062 -97.039062 81.242188 -95.125 84.390625 -92.65625 C 87.535156 -90.195312 89.722656 -87.257812 90.953125 -83.84375 C 92.179688 -80.425781 92.796875 -76.625 92.796875 -72.4375 Z M 38.953125 -30.75 C 38.953125 -28.925781 39.632812 -27.398438 41 -26.171875 C 42.363281 -24.941406 45.507812 -24.328125 50.4375 -24.328125 C 55.351562 -24.328125 58.492188 -24.941406 59.859375 -26.171875 C 61.222656 -27.398438 61.90625 -28.925781 61.90625 -30.75 L 61.90625 -67.515625 C 61.90625 -69.242188 61.222656 -70.722656 59.859375 -71.953125 C 58.492188 -73.179688 55.351562 -73.796875 50.4375 -73.796875 C 45.507812 -73.796875 42.363281 -73.179688 41 -71.953125 C 39.632812 -70.722656 38.953125 -69.242188 38.953125 -67.515625 Z M 38.953125 -30.75 "/></g></g></g><g fill="#00ffff" fill-opacity="1"><g transform="translate(200.077142, 212.249729)"><g><path d="M 55.078125 0 L 11.890625 0 C 10.160156 0 8.90625 -0.382812 8.125 -1.15625 C 7.351562 -1.9375 6.96875 -3.191406 6.96875 -4.921875 L 6.96875 -20.90625 C 6.96875 -22.632812 7.351562 -23.882812 8.125 -24.65625 C 8.90625 -25.4375 10.160156 -25.828125 11.890625 -25.828125 L 48.65625 -25.828125 C 49.84375 -25.828125 50.726562 -26.210938 51.3125 -26.984375 C 51.90625 -27.765625 52.203125 -28.703125 52.203125 -29.796875 C 52.203125 -31.347656 51.90625 -32.484375 51.3125 -33.203125 C 50.726562 -33.929688 49.84375 -34.34375 48.65625 -34.4375 L 28.15625 -37.3125 C 21.78125 -38.21875 16.65625 -40.3125 12.78125 -43.59375 C 8.90625 -46.875 6.96875 -52.34375 6.96875 -60 L 6.96875 -74.34375 C 6.96875 -82.09375 9.472656 -88.039062 14.484375 -92.1875 C 19.492188 -96.332031 26.421875 -98.40625 35.265625 -98.40625 L 73.53125 -98.40625 C 75.257812 -98.40625 76.507812 -98.015625 77.28125 -97.234375 C 78.0625 -96.460938 78.453125 -95.210938 78.453125 -93.484375 L 78.453125 -77.21875 C 78.453125 -75.488281 78.0625 -74.234375 77.28125 -73.453125 C 76.507812 -72.679688 75.257812 -72.296875 73.53125 -72.296875 L 41.6875 -72.296875 C 40.5 -72.296875 39.585938 -71.90625 38.953125 -71.125 C 38.316406 -70.351562 38 -69.378906 38 -68.203125 C 38 -67.015625 38.316406 -66.007812 38.953125 -65.1875 C 39.585938 -64.375 40.5 -63.921875 41.6875 -63.828125 L 62.046875 -61.09375 C 68.421875 -60.175781 73.566406 -58.078125 77.484375 -54.796875 C 81.410156 -51.523438 83.375 -46.0625 83.375 -38.40625 L 83.375 -24.046875 C 83.375 -16.304688 80.84375 -10.363281 75.78125 -6.21875 C 70.726562 -2.070312 63.828125 0 55.078125 0 Z M 55.078125 0 "/></g></g></g><g fill="#00ffff" fill-opacity="1"><g transform="translate(288.908809, 212.249729)"><g><path d="M 55.90625 0 L 33.765625 0 C 32.023438 0 30.769531 -0.382812 30 -1.15625 C 29.226562 -1.9375 28.84375 -3.191406 28.84375 -4.921875 L 28.84375 -72.03125 L 8.75 -72.03125 C 7.019531 -72.03125 5.765625 -72.414062 4.984375 -73.1875 C 4.210938 -73.957031 3.828125 -75.210938 3.828125 -76.953125 L 3.828125 -93.484375 C 3.828125 -95.210938 4.210938 -96.460938 4.984375 -97.234375 C 5.765625 -98.015625 7.019531 -98.40625 8.75 -98.40625 L 80.90625 -98.40625 C 82.632812 -98.40625 83.882812 -98.015625 84.65625 -97.234375 C 85.4375 -96.460938 85.828125 -95.210938 85.828125 -93.484375 L 85.828125 -76.953125 C 85.828125 -75.210938 85.4375 -73.957031 84.65625 -73.1875 C 83.882812 -72.414062 82.632812 -72.03125 80.90625 -72.03125 L 60.8125 -72.03125 L 60.8125 -4.921875 C 60.8125 -3.191406 60.425781 -1.9375 59.65625 -1.15625 C 58.882812 -0.382812 57.632812 0 55.90625 0 Z M 55.90625 0 "/></g></g></g><g fill="#7843e6" fill-opacity="1"><g transform="translate(2.589848, 215.570383)"><g><path d="M 35.53125 0 L 14.34375 0 C 12.613281 0 11.363281 -0.382812 10.59375 -1.15625 C 9.820312 -1.9375 9.4375 -3.191406 9.4375 -4.921875 L 9.4375 -93.484375 C 9.4375 -95.210938 9.820312 -96.460938 10.59375 -97.234375 C 11.363281 -98.015625 12.613281 -98.40625 14.34375 -98.40625 L 56.171875 -98.40625 C 68.566406 -98.40625 77.039062 -95.941406 81.59375 -91.015625 C 86.144531 -86.097656 88.421875 -79.675781 88.421875 -71.75 L 88.421875 -54.265625 C 88.421875 -46.335938 86.144531 -39.910156 81.59375 -34.984375 C 77.039062 -30.066406 68.566406 -27.609375 56.171875 -27.609375 L 40.453125 -27.609375 L 40.453125 -4.921875 C 40.453125 -3.191406 40.0625 -1.9375 39.28125 -1.15625 C 38.507812 -0.382812 37.257812 0 35.53125 0 Z M 40.1875 -72.84375 L 40.1875 -52.203125 L 52.484375 -52.203125 C 55.128906 -52.203125 56.859375 -52.882812 57.671875 -54.25 C 58.492188 -55.625 58.90625 -57.175781 58.90625 -58.90625 L 58.90625 -66.15625 C 58.90625 -67.882812 58.492188 -69.429688 57.671875 -70.796875 C 56.859375 -72.160156 55.128906 -72.84375 52.484375 -72.84375 Z M 40.1875 -72.84375 "/></g></g></g><g fill="#7843e6" fill-opacity="1"><g transform="translate(95.794749, 215.570383)"><g><path d="M 92.796875 -25.828125 C 92.796875 -21.640625 92.179688 -17.835938 90.953125 -14.421875 C 89.722656 -11.003906 87.535156 -8.085938 84.390625 -5.671875 C 81.242188 -3.253906 76.914062 -1.363281 71.40625 0 C 65.894531 1.363281 58.90625 2.046875 50.4375 2.046875 C 41.957031 2.046875 34.9375 1.363281 29.375 0 C 23.820312 -1.363281 19.472656 -3.253906 16.328125 -5.671875 C 13.179688 -8.085938 10.992188 -11.003906 9.765625 -14.421875 C 8.535156 -17.835938 7.921875 -21.640625 7.921875 -25.828125 L 7.921875 -72.4375 C 7.921875 -76.625 8.535156 -80.425781 9.765625 -83.84375 C 10.992188 -87.257812 13.179688 -90.195312 16.328125 -92.65625 C 19.472656 -95.125 23.820312 -97.039062 29.375 -98.40625 C 34.9375 -99.769531 41.957031 -100.453125 50.4375 -100.453125 C 58.90625 -100.453125 65.894531 -99.769531 71.40625 -98.40625 C 76.914062 -97.039062 81.242188 -95.125 84.390625 -92.65625 C 87.535156 -90.195312 89.722656 -87.257812 90.953125 -83.84375 C 92.179688 -80.425781 92.796875 -76.625 92.796875 -72.4375 Z M 38.953125 -30.75 C 38.953125 -28.925781 39.632812 -27.398438 41 -26.171875 C 42.363281 -24.941406 45.507812 -24.328125 50.4375 -24.328125 C 55.351562 -24.328125 58.492188 -24.941406 59.859375 -26.171875 C 61.222656 -27.398438 61.90625 -28.925781 61.90625 -30.75 L 61.90625 -67.515625 C 61.90625 -69.242188 61.222656 -70.722656 59.859375 -71.953125 C 58.492188 -73.179688 55.351562 -73.796875 50.4375 -73.796875 C 45.507812 -73.796875 42.363281 -73.179688 41 -71.953125 C 39.632812 -70.722656 38.953125 -69.242188 38.953125 -67.515625 Z M 38.953125 -30.75 "/></g></g></g><g fill="#7843e6" fill-opacity="1"><g transform="translate(196.516174, 215.570383)"><g><path d="M 55.078125 0 L 11.890625 0 C 10.160156 0 8.90625 -0.382812 8.125 -1.15625 C 7.351562 -1.9375 6.96875 -3.191406 6.96875 -4.921875 L 6.96875 -20.90625 C 6.96875 -22.632812 7.351562 -23.882812 8.125 -24.65625 C 8.90625 -25.4375 10.160156 -25.828125 11.890625 -25.828125 L 48.65625 -25.828125 C 49.84375 -25.828125 50.726562 -26.210938 51.3125 -26.984375 C 51.90625 -27.765625 52.203125 -28.703125 52.203125 -29.796875 C 52.203125 -31.347656 51.90625 -32.484375 51.3125 -33.203125 C 50.726562 -33.929688 49.84375 -34.34375 48.65625 -34.4375 L 28.15625 -37.3125 C 21.78125 -38.21875 16.65625 -40.3125 12.78125 -43.59375 C 8.90625 -46.875 6.96875 -52.34375 6.96875 -60 L 6.96875 -74.34375 C 6.96875 -82.09375 9.472656 -88.039062 14.484375 -92.1875 C 19.492188 -96.332031 26.421875 -98.40625 35.265625 -98.40625 L 73.53125 -98.40625 C 75.257812 -98.40625 76.507812 -98.015625 77.28125 -97.234375 C 78.0625 -96.460938 78.453125 -95.210938 78.453125 -93.484375 L 78.453125 -77.21875 C 78.453125 -75.488281 78.0625 -74.234375 77.28125 -73.453125 C 76.507812 -72.679688 75.257812 -72.296875 73.53125 -72.296875 L 41.6875 -72.296875 C 40.5 -72.296875 39.585938 -71.90625 38.953125 -71.125 C 38.316406 -70.351562 38 -69.378906 38 -68.203125 C 38 -67.015625 38.316406 -66.007812 38.953125 -65.1875 C 39.585938 -64.375 40.5 -63.921875 41.6875 -63.828125 L 62.046875 -61.09375 C 68.421875 -60.175781 73.566406 -58.078125 77.484375 -54.796875 C 81.410156 -51.523438 83.375 -46.0625 83.375 -38.40625 L 83.375 -24.046875 C 83.375 -16.304688 80.84375 -10.363281 75.78125 -6.21875 C 70.726562 -2.070312 63.828125 0 55.078125 0 Z M 55.078125 0 "/></g></g></g><g fill="#7843e6" fill-opacity="1"><g transform="translate(285.34784, 215.570383)"><g><path d="M 55.90625 0 L 33.765625 0 C 32.023438 0 30.769531 -0.382812 30 -1.15625 C 29.226562 -1.9375 28.84375 -3.191406 28.84375 -4.921875 L 28.84375 -72.03125 L 8.75 -72.03125 C 7.019531 -72.03125 5.765625 -72.414062 4.984375 -73.1875 C 4.210938 -73.957031 3.828125 -75.210938 3.828125 -76.953125 L 3.828125 -93.484375 C 3.828125 -95.210938 4.210938 -96.460938 4.984375 -97.234375 C 5.765625 -98.015625 7.019531 -98.40625 8.75 -98.40625 L 80.90625 -98.40625 C 82.632812 -98.40625 83.882812 -98.015625 84.65625 -97.234375 C 85.4375 -96.460938 85.828125 -95.210938 85.828125 -93.484375 L 85.828125 -76.953125 C 85.828125 -75.210938 85.4375 -73.957031 84.65625 -73.1875 C 83.882812 -72.414062 82.632812 -72.03125 80.90625 -72.03125 L 60.8125 -72.03125 L 60.8125 -4.921875 C 60.8125 -3.191406 60.425781 -1.9375 59.65625 -1.15625 C 58.882812 -0.382812 57.632812 0 55.90625 0 Z M 55.90625 0 "/></g></g></g></svg>